<svg width="136" height="134" viewBox="0 0 136 134" fill="none" xmlns="http://www.w3.org/2000/svg">
<g filter="url(#filter0_d_3_7544)">
<rect x="2.5" y="2" width="131" height="130" rx="65" fill="white"/>
<rect x="4" y="3.5" width="128" height="127" rx="63.5" stroke="#E50695" stroke-width="3"/>
</g>
<path d="M41.4167 78.6417L68.0001 58.0167L94.5834 78.6417C92.8112 83.4694 90.2604 87.8242 86.9311 91.706C83.6017 95.5878 79.7358 98.658 75.3334 100.917V81.7583C75.3334 80.7194 74.9814 79.8492 74.2774 79.1477C73.5734 78.4461 72.7032 78.0941 71.6667 78.0917H64.3334C63.2945 78.0917 62.4231 78.4437 61.7191 79.1477C61.0151 79.8517 60.6643 80.7219 60.6667 81.7583V100.917C56.2667 98.6556 52.4008 95.5853 49.0691 91.706C45.7373 87.8267 43.1865 83.4719 41.4167 78.6417ZM38.6667 63.7V46.4667C38.6667 44.9389 39.1104 43.5492 39.9977 42.2977C40.8851 41.0461 42.0303 40.1441 43.4334 39.5917L65.4334 31.3417C66.2889 31.0361 67.1445 30.8833 68.0001 30.8833C68.8556 30.8833 69.7112 31.0361 70.5667 31.3417L92.5667 39.5917C93.9723 40.1417 95.1187 41.0437 96.0061 42.2977C96.8934 43.5517 97.3358 44.9413 97.3334 46.4667V63.7C97.3334 64.9222 97.2723 66.1298 97.1501 67.3227C97.0278 68.5156 96.8751 69.7219 96.6917 70.9417L72.4917 52.2417C71.1473 51.2028 69.6501 50.6833 68.0001 50.6833C66.3501 50.6833 64.8528 51.2028 63.5084 52.2417L39.3084 70.9417C39.0639 69.7194 38.8953 68.5131 38.8024 67.3227C38.7095 66.1322 38.6643 64.9247 38.6667 63.7Z" fill="#421963"/>
<defs>
<filter id="filter0_d_3_7544" x="0.5" y="0" width="135" height="134" filterUnits="userSpaceOnUse" color-interpolation-filters="sRGB">
<feFlood flood-opacity="0" result="BackgroundImageFix"/>
<feColorMatrix in="SourceAlpha" type="matrix" values="0 0 0 0 0 0 0 0 0 0 0 0 0 0 0 0 0 0 127 0" result="hardAlpha"/>
<feOffset/>
<feGaussianBlur stdDeviation="1"/>
<feComposite in2="hardAlpha" operator="out"/>
<feColorMatrix type="matrix" values="0 0 0 0 0.0666667 0 0 0 0 0.0901961 0 0 0 0 0.12549 0 0 0 0.75 0"/>
<feBlend mode="normal" in2="BackgroundImageFix" result="effect1_dropShadow_3_7544"/>
<feBlend mode="normal" in="SourceGraphic" in2="effect1_dropShadow_3_7544" result="shape"/>
</filter>
</defs>
</svg>
