<svg width="136" height="134" viewBox="0 0 136 134" fill="none" xmlns="http://www.w3.org/2000/svg">
<g filter="url(#filter0_d_3_7581)">
<rect x="2.5" y="2" width="131" height="130" rx="65" fill="white"/>
</g>
<path d="M41.4166 78.6417L67.9999 58.0167L94.5833 78.6417C92.811 83.4694 90.2603 87.8242 86.9309 91.706C83.6016 95.5878 79.7357 98.658 75.3333 100.917V81.7583C75.3333 80.7194 74.9813 79.8492 74.2773 79.1477C73.5733 78.4461 72.703 78.0941 71.6666 78.0917H64.3333C63.2944 78.0917 62.4229 78.4437 61.7189 79.1477C61.0149 79.8517 60.6642 80.7219 60.6666 81.7583V100.917C56.2666 98.6556 52.4007 95.5853 49.0689 91.706C45.7372 87.8267 43.1864 83.4719 41.4166 78.6417ZM38.6666 63.7V46.4667C38.6666 44.9389 39.1103 43.5492 39.9976 42.2977C40.8849 41.0461 42.0302 40.1441 43.4333 39.5917L65.4333 31.3417C66.2888 31.0361 67.1444 30.8833 67.9999 30.8833C68.8555 30.8833 69.711 31.0361 70.5666 31.3417L92.5666 39.5917C93.9722 40.1417 95.1186 41.0437 96.0059 42.2977C96.8933 43.5517 97.3357 44.9413 97.3333 46.4667V63.7C97.3333 64.9222 97.2722 66.1298 97.1499 67.3227C97.0277 68.5156 96.8749 69.7219 96.6916 70.9417L72.4916 52.2417C71.1472 51.2028 69.6499 50.6833 67.9999 50.6833C66.3499 50.6833 64.8527 51.2028 63.5083 52.2417L39.3083 70.9417C39.0638 69.7194 38.8952 68.5131 38.8023 67.3227C38.7094 66.1322 38.6642 64.9247 38.6666 63.7Z" fill="#421963"/>
<defs>
<filter id="filter0_d_3_7581" x="0.5" y="0" width="135" height="134" filterUnits="userSpaceOnUse" color-interpolation-filters="sRGB">
<feFlood flood-opacity="0" result="BackgroundImageFix"/>
<feColorMatrix in="SourceAlpha" type="matrix" values="0 0 0 0 0 0 0 0 0 0 0 0 0 0 0 0 0 0 127 0" result="hardAlpha"/>
<feOffset/>
<feGaussianBlur stdDeviation="1"/>
<feComposite in2="hardAlpha" operator="out"/>
<feColorMatrix type="matrix" values="0 0 0 0 0.0666667 0 0 0 0 0.0901961 0 0 0 0 0.12549 0 0 0 0.75 0"/>
<feBlend mode="normal" in2="BackgroundImageFix" result="effect1_dropShadow_3_7581"/>
<feBlend mode="normal" in="SourceGraphic" in2="effect1_dropShadow_3_7581" result="shape"/>
</filter>
</defs>
</svg>
